<?xml version="1.0" encoding="UTF-8" standalone="no"?>
<!DOCTYPE svg PUBLIC "-//W3C//DTD SVG 1.1//EN" "http://www.w3.org/Graphics/SVG/1.1/DTD/svg11.dtd">
<svg width="100%" height="100%" viewBox="0 0 512 513" version="1.1" xmlns="http://www.w3.org/2000/svg" xmlns:xlink="http://www.w3.org/1999/xlink" xml:space="preserve" xmlns:serif="http://www.serif.com/" style="fill-rule:evenodd;clip-rule:evenodd;stroke-linejoin:round;stroke-miterlimit:2;">
    <g transform="matrix(1,0,0,1,-10495,-4889)">
        <g id="Logo_Concrete_Yellow" transform="matrix(0.691571,0,0,0.858773,3236.62,1754.01)">
            <rect x="10495.5" y="3650.58" width="740.343" height="596.2" style="fill:none;"/>
            <g transform="matrix(6.14182,0,0,4.94602,4779.1,-4127.53)">
                <path d="M987.711,1671.87C989.528,1670.05 992.473,1670.05 994.29,1671.87C999.509,1677.09 1009.1,1686.68 1009.1,1686.68C1009.65,1687.23 1010.42,1687.48 1011.19,1687.37L1039.28,1683.21C1040.35,1683.05 1041.18,1682.21 1041.34,1681.15L1045.5,1653.05C1045.62,1652.29 1045.36,1651.51 1044.81,1650.97C1044.81,1650.97 1042.58,1648.73 1039.61,1645.76C1030.58,1636.74 1015.95,1636.74 1006.93,1645.76C1006.93,1645.76 998.96,1653.73 994.298,1658.39C993.425,1659.26 992.242,1659.75 991.008,1659.75C989.774,1659.75 988.591,1659.26 987.718,1658.39C982.173,1652.85 971.029,1641.7 965.484,1636.16C964.611,1635.28 964.121,1634.1 964.121,1632.87C964.121,1631.63 964.611,1630.45 965.484,1629.58C971.027,1624.03 982.167,1612.89 987.711,1607.35C989.528,1605.53 992.473,1605.53 994.29,1607.35C998.954,1612.01 1006.93,1619.99 1006.93,1619.99C1015.95,1629.01 1030.58,1629.01 1039.61,1619.99C1042.58,1617.02 1044.81,1614.78 1044.81,1614.78C1045.36,1614.23 1045.62,1613.46 1045.5,1612.7L1041.34,1584.6C1041.18,1583.53 1040.35,1582.7 1039.28,1582.54L1011.19,1578.38C1010.42,1578.27 1009.65,1578.52 1009.1,1579.07C1009.1,1579.07 999.515,1588.65 994.298,1593.87C992.481,1595.69 989.535,1595.69 987.718,1593.87C982.499,1588.65 972.908,1579.06 972.908,1579.06C972.361,1578.51 971.588,1578.26 970.824,1578.37L942.724,1582.53C941.66,1582.69 940.824,1583.53 940.666,1584.59L936.506,1612.69C936.393,1613.45 936.648,1614.23 937.195,1614.77C937.195,1614.77 946.781,1624.36 951.998,1629.58C953.814,1631.39 953.814,1634.34 951.998,1636.16C946.781,1641.37 937.195,1650.96 937.195,1650.96C936.648,1651.51 936.393,1652.28 936.506,1653.04L940.666,1681.14C940.824,1682.21 941.66,1683.04 942.724,1683.2L970.824,1687.36C971.588,1687.47 972.361,1687.22 972.908,1686.67C972.908,1686.67 982.494,1677.09 987.711,1671.87Z" style="fill:rgb(255,235,90);"/>
            </g>
        </g>
    </g>
</svg>
