<?xml version="1.0" encoding="UTF-8" standalone="no"?>
<!DOCTYPE svg PUBLIC "-//W3C//DTD SVG 1.1//EN" "http://www.w3.org/Graphics/SVG/1.1/DTD/svg11.dtd">
<svg width="100%" height="100%" viewBox="0 0 512 513" version="1.1" xmlns="http://www.w3.org/2000/svg" xmlns:xlink="http://www.w3.org/1999/xlink" xml:space="preserve" xmlns:serif="http://www.serif.com/" style="fill-rule:evenodd;clip-rule:evenodd;stroke-linecap:square;stroke-linejoin:round;stroke-miterlimit:1.5;">
    <g transform="matrix(1,0,0,1,-10495,-6172)">
        <g id="Logo_Concrete_Button_Black" transform="matrix(0.691571,0,0,0.858773,3236.62,3037.55)">
            <rect x="10495.5" y="3650.58" width="740.343" height="596.2" style="fill:none;"/>
            <g transform="matrix(7.15747,0,0,4.53587,1402.81,-2908.23)">
                <g transform="matrix(1.19192,0,0,0.689458,1184.04,351.223)">
                    <path d="M157.146,1605.43C157.146,1601.98 156.521,1598.66 155.409,1596.22C154.297,1593.77 152.788,1592.4 151.215,1592.4L88.772,1592.4C87.199,1592.4 85.691,1593.77 84.578,1596.22C83.466,1598.66 82.841,1601.98 82.841,1605.43L82.841,1742.61C82.841,1746.06 83.466,1749.38 84.578,1751.82C85.691,1754.27 87.199,1755.64 88.772,1755.64L151.215,1755.64C152.788,1755.64 154.297,1754.27 155.409,1751.82C156.521,1749.38 157.146,1746.06 157.146,1742.61L157.146,1605.43Z" style="stroke:black;stroke-width:1.05px;"/>
                </g>
                <g transform="matrix(1.19192,0,0,0.689458,1174.1,363.859)">
                    <path d="M157.146,1605.43C157.146,1601.98 156.521,1598.66 155.409,1596.22C154.297,1593.77 152.788,1592.4 151.215,1592.4L88.772,1592.4C87.199,1592.4 85.691,1593.77 84.578,1596.22C83.466,1598.66 82.841,1601.98 82.841,1605.43L82.841,1742.61C82.841,1746.06 83.466,1749.38 84.578,1751.82C85.691,1754.27 87.199,1755.64 88.772,1755.64L151.215,1755.64C152.788,1755.64 154.297,1754.27 155.409,1751.82C156.521,1749.38 157.146,1746.06 157.146,1742.61L157.146,1605.43Z" style="stroke:black;stroke-width:1.05px;"/>
                </g>
                <g transform="matrix(1.14547,0,0,0.662589,1179.67,408.839)">
                    <path d="M165.827,1573.33L91.522,1573.33L82.841,1592.4L82.841,1755.64L157.146,1755.64L165.827,1736.57L165.827,1573.33Z"/>
                </g>
                <g transform="matrix(0.629792,0,0,0.800304,702.942,198.599)">
                    <path d="M987.917,1671.66C989.62,1669.96 992.381,1669.96 994.084,1671.66C999.251,1676.83 1009.1,1686.68 1009.1,1686.68C1009.65,1687.23 1010.42,1687.48 1011.19,1687.37L1039.28,1683.21C1040.35,1683.05 1041.18,1682.21 1041.34,1681.15L1045.5,1653.05C1045.62,1652.29 1045.36,1651.51 1044.81,1650.97C1044.81,1650.97 1042.58,1648.73 1039.61,1645.76C1030.58,1636.74 1015.95,1636.74 1006.93,1645.76C1006.93,1645.76 998.72,1653.97 994.091,1658.6C992.388,1660.3 989.628,1660.3 987.925,1658.6C982.386,1653.06 970.815,1641.49 965.277,1635.95C964.459,1635.13 964,1634.02 964,1632.87C964,1631.71 964.459,1630.6 965.277,1629.78C970.814,1624.25 982.38,1612.68 987.917,1607.14C988.735,1606.32 989.844,1605.87 991,1605.87C992.157,1605.87 993.266,1606.32 994.084,1607.14C998.714,1611.77 1006.93,1619.99 1006.93,1619.99C1015.95,1629.01 1030.58,1629.01 1039.61,1619.99C1042.58,1617.02 1044.81,1614.78 1044.81,1614.78C1045.36,1614.23 1045.62,1613.46 1045.5,1612.7L1041.34,1584.6C1041.18,1583.53 1040.35,1582.7 1039.28,1582.54L1011.19,1578.38C1010.42,1578.27 1009.65,1578.52 1009.1,1579.07C1009.1,1579.07 999.257,1588.91 994.091,1594.08C992.388,1595.78 989.628,1595.78 987.925,1594.08C982.757,1588.91 972.908,1579.06 972.908,1579.06C972.361,1578.51 971.588,1578.26 970.824,1578.37L942.724,1582.53C941.66,1582.69 940.824,1583.53 940.666,1584.59L936.506,1612.69C936.393,1613.45 936.648,1614.23 937.195,1614.77C937.195,1614.77 947.039,1624.62 952.204,1629.78C953.907,1631.49 953.907,1634.25 952.204,1635.95C947.039,1641.12 937.195,1650.96 937.195,1650.96C936.648,1651.51 936.393,1652.28 936.506,1653.04L940.666,1681.14C940.824,1682.21 941.66,1683.04 942.724,1683.2L970.824,1687.36C971.588,1687.47 972.361,1687.22 972.908,1686.67C972.908,1686.67 982.752,1676.83 987.917,1671.66Z" style="fill:white;stroke:white;stroke-width:0.3px;stroke-linecap:butt;stroke-miterlimit:2;"/>
                </g>
            </g>
        </g>
    </g>
</svg>
